<?xml version="1.0" standalone="no"?>
<!DOCTYPE svg PUBLIC "-//W3C//DTD SVG 20010904//EN"
 "http://www.w3.org/TR/2001/REC-SVG-20010904/DTD/svg10.dtd">
<svg version="1.0" xmlns="http://www.w3.org/2000/svg"
 width="1280.000000pt" height="1280.000000pt" viewBox="0 0 1280.000000 1280.000000"
 preserveAspectRatio="xMidYMid meet">
<g transform="translate(0.000000,1280.000000) scale(0.100000,-0.100000)"
fill="#000000" stroke="none">
<path d="M7395 12445 c-3 -8 -7 -22 -10 -30 -4 -13 -190 -15 -1507 -17 l-1503
-3 -80 -23 c-260 -73 -477 -248 -593 -478 -91 -180 -102 -263 -102 -756 l0
-397 -47 -3 -48 -3 -3 -252 -2 -252 47 -3 48 -3 0 -330 0 -330 -47 -3 -48 -3
0 -165 0 -164 28 0 c15 0 37 -3 50 -6 l22 -6 0 -328 c0 -363 4 -340 -66 -340
l-34 0 0 -164 0 -165 48 -3 47 -3 5 -3540 c5 -2616 9 -3552 17 -3586 47 -189
117 -319 242 -451 112 -119 247 -202 418 -255 l88 -28 2085 0 2085 0 78 23
c182 52 317 132 438 260 131 137 219 310 248 492 15 91 15 10399 0 10490 -59
366 -343 670 -705 756 -38 9 -114 19 -169 23 -95 6 -99 7 -105 31 l-6 25 -457
3 c-401 2 -458 0 -462 -13z"/>
</g>
</svg>
